:SAMPLES-PER-SECOND 24
:FULLY-SPECIFIED
:DEGREES
525
root  13.9995 37.323 20.7615 4.13782 -47.3226 0.55072
RightUpLeg  -5.92168 6.37123 -8.4584
RightLeg  32.0056 -9.97192 -6.88013
RightFoot  -25.6795 1.02771 9.52269
RightToes  -2.08645e-008 3.77894e-005 6.81332e-007
Spine  0.553821 1.57131 1.85378
Spine1  11.4191 2.3275 -2.90367
HEad  -37.2989 23.9926 -17.3634
LeftShoulder1  8.09378 -13.7276 -40.7312
LeftArm  -4.77571 15.9451 -28.9496
LeftForeArm  149.621 -77.0959 -134.111
LeftHand  -0.583072 -1.55776 9.91497
RightShoulder  4.18897 6.7946 34.779
RightArm  14.0473 -19.0875 32.205
RightForeArm  99.7703 80.5211 86.326
RightHand  -0.409035 8.94695 -3.69311
LeftUpLeg  -24.6808 -4.34746 9.2437
LeftLeg  34.6094 6.01444 4.80517
LeftFoot  -11.6499 0.0316496 -13.6548
LeftToes  1.24767e-006 1.47042e-008 1.32732e-009
526
root  14.0824 38.2693 21.4715 4.55896 -45.9221 -0.349976
RightUpLeg  -3.73251 4.16933 -8.8931
RightLeg  28.6931 -8.06451 -4.98393
RightFoot  -19.2358 0.680485 11.722
RightToes  -2.08645e-008 3.77894e-005 6.81332e-007
Spine  -0.12085 2.16939 2.73682
Spine1  10.9338 3.06409 -3.19192
HEad  -35.7272 23.6008 -15.5905
LeftShoulder1  7.63562 -13.2828 -39.321
LeftArm  -4.13167 19.3013 -33.2547
LeftForeArm  153.846 -75.5142 -140.03
LeftHand  -0.505095 -1.38954 8.81086
RightShoulder  4.19082 6.76809 34.9012
RightArm  13.8121 -22.7382 33.8438
RightForeArm  118.308 80.0935 106.094
RightHand  -0.263208 8.91263 -2.52146
LeftUpLeg  -21.8096 -5.08505 8.74488
LeftLeg  29.8501 6.3968 4.30172
LeftFoot  -7.24854 0.482871 -12.2666
LeftToes  1.24767e-006 1.47042e-008 1.32732e-009
527
root  14.1149 39.7649 22.1909 7.12158 -46.7825 -2.52356
RightUpLeg  -3.66062 2.69595 -8.46166
RightLeg  24.388 -7.16946 -3.75205
RightFoot  -7.5984 -0.370957 10.1457
RightToes  -2.08645e-008 3.77894e-005 6.81332e-007
Spine  -1.41016 3.07456 4.47694
Spine1  9.17535 4.19011 -4.14011
HEad  -32.6139 25.0272 -14.2158
LeftShoulder1  6.99297 -12.6004 -37.3434
LeftArm  -2.1116 26.5201 -34.8097
LeftForeArm  161.234 -71.14 -150.493
LeftHand  -0.435021 -1.75405 7.25778
RightShoulder  4.10641 6.72311 34.2626
RightArm  17.2168 -25.3557 34.4892
RightForeArm  136.772 78.5456 124.278
RightHand  -0.204061 9.31995 -2.02494
LeftUpLeg  -17.9279 1.01404 9.3122
LeftLeg  21.1606 1.05764 0.828091
LeftFoot  -0.167282 1.34634 -13.5784
LeftToes  1.24767e-006 1.47042e-008 1.32732e-009
528
root  14.1149 40.8874 22.7328 10.0581 -46.7978 -4.26581
RightUpLeg  -5.13251 0.840431 -7.46574
RightLeg  21.8272 -7.2743 -3.4056
RightFoot  -0.505866 -0.777674 8.01095
RightToes  -2.08645e-008 3.77894e-005 6.81332e-007
Spine  -3.09358 3.40002 4.2651
Spine1  7.63042 4.40855 -4.19073
HEad  -31.1746 25.8477 -13.4359
LeftShoulder1  6.51367 -12.1313 -35.6315
LeftArm  0.120837 32.9526 -33.107
LeftForeArm  166.004 -66.878 -156.669
LeftHand  -0.279889 -2.40144 4.36804
RightShoulder  4.07347 6.78442 33.7068
RightArm  20.8806 -26.1078 33.1297
RightForeArm  152.905 76.1846 137.803
RightHand  0.239177 10.8869 1.27934
LeftUpLeg  -16.3402 6.88308 10.0902
LeftLeg  14.7677 -5.11236 -1.30889
LeftFoot  5.8059 2.63412 -17.56
LeftToes  1.24767e-006 1.47042e-008 1.32732e-009
529
root  14.2204 41.2848 23.1039 10.8727 -44.7657 -4.73889
RightUpLeg  -4.84195 -0.644257 -6.72897
RightLeg  19.789 -5.08422 -2.2279
RightFoot  -3.02491 -0.681926 9.12748
RightToes  -2.08645e-008 3.77894e-005 6.81332e-007
Spine  -3.3705 2.83444 2.63962
Spine1  7.20782 3.67873 -3.51247
HEad  -32.1418 24.3173 -13.9951
LeftShoulder1  6.30486 -12.0472 -34.5338
LeftArm  2.99432 35.5973 -29.6064
LeftForeArm  167.089 -64.0571 -159.487
LeftHand  -0.131776 -2.66793 2.11319
RightShoulder  3.99816 6.74265 33.1353
RightArm  22.9886 -25.0298 31.3076
RightForeArm  158.903 74.0521 144.605
RightHand  0.257184 10.964 1.39861
LeftUpLeg  -16.5507 3.52739 11.0589
LeftLeg  14.2211 -2.9114 -0.430075
LeftFoot  7.58015 3.10114 -18.7818
LeftToes  1.24767e-006 1.47042e-008 1.32732e-009
530
root  14.4523 41.0712 23.4445 10.8423 -42.3257 -5.44391
RightUpLeg  -3.43845 1.72375 -5.71278
RightLeg  16.9091 -0.587422 -0.794931
RightFoot  -6.54184 -0.516619 11.228
RightToes  -2.08645e-008 3.77894e-005 6.81332e-007
Spine  -2.48649 2.29982 1.89261
Spine1  7.49738 3.01465 -2.87706
HEad  -32.9268 21.5666 -14.8204
LeftShoulder1  6.04902 -11.8455 -33.4094
LeftArm  6.0839 34.2037 -27.1823
LeftForeArm  166.972 -63.5018 -159.947
LeftHand  -0.139831 -2.78393 2.20695
RightShoulder  3.80621 6.51614 32.1
RightArm  23.6051 -22.9788 30.1632
RightForeArm  156.995 73.3533 145.795
RightHand  0.104546 9.89126 0.383851
LeftUpLeg  -17.4648 -2.83341 12.2208
LeftLeg  18.5139 3.31802 1.56559
LeftFoot  5.83405 2.27842 -15.2489
LeftToes  1.24767e-006 1.47042e-008 1.32732e-009
531
root  14.7001 40.2654 23.7888 10.9799 -40.9403 -5.8913
RightUpLeg  -3.63836 7.28906 -5.10437
RightLeg  16.6711 0.309067 -0.593908
RightFoot  -8.44613 -0.337781 10.912
RightToes  -2.08645e-008 3.77894e-005 6.81332e-007
Spine  -1.23937 2.43219 1.63051
Spine1  6.78845 3.16902 -3.10312
HEad  -32.8204 18.8156 -14.4393
LeftShoulder1  5.56373 -11.2318 -31.7625
LeftArm  8.58671 30.3912 -26.3142
LeftForeArm  166.647 -64.7138 -158.866
LeftHand  -0.184256 -2.7864 2.8401
RightShoulder  3.69736 6.43848 31.2963
RightArm  22.3567 -21.997 29.0571
RightForeArm  154.954 73.7902 144.524
RightHand  -0.107307 8.75651 -1.25766
LeftUpLeg  -18.6129 -4.10344 11.9053
LeftLeg  23.5623 5.7611 3.06567
LeftFoot  0.194975 1.28038 -12.7245
LeftToes  1.24767e-006 1.47042e-008 1.32732e-009
532
root  14.9497 38.9977 24.1045 10.2007 -39.5759 -4.61523
RightUpLeg  -4.13146 9.01767 -6.12794
RightLeg  19.5463 -2.63903 -1.21716
RightFoot  -14.6594 0.128463 8.39961
RightToes  -2.08645e-008 3.77894e-005 6.81332e-007
Spine  0.0848507 2.69729 0.633895
Spine1  6.05942 3.64381 -4.1945
HEad  -33.437 16.0188 -13.7053
LeftShoulder1  5.54514 -11.1016 -31.9813
LeftArm  10.3731 23.5508 -23.4813
LeftForeArm  164.086 -67.164 -156.17
LeftHand  -0.262546 -2.90377 3.89937
RightShoulder  3.76505 6.55899 31.5234
RightArm  19.2516 -21.3047 28.2292
RightForeArm  149.054 76.0517 137.402
RightHand  -0.367025 8.76724 -3.38581
LeftUpLeg  -20.39 -4.68938 9.98795
LeftLeg  28.3013 5.79666 3.70927
LeftFoot  -8.97382 0.309827 -12.4354
LeftToes  1.24767e-006 1.47042e-008 1.32732e-009
533
root  15.2712 37.8417 24.4124 8.61279 -36.735 -2.74738
RightUpLeg  -3.57174 6.70103 -7.52347
RightLeg  22.8427 -5.34027 -2.68598
RightFoot  -22.7516 0.608531 7.59625
RightToes  -2.08645e-008 3.77894e-005 6.81332e-007
Spine  0.736489 2.50393 -0.227368
Spine1  7.84101 3.66793 -4.91406
HEad  -35.7489 13.2972 -13.6014
LeftShoulder1  6.47742 -12.1369 -35.3705
LeftArm  9.91008 13.911 -18.9613
LeftForeArm  159.776 -71.9513 -148.866
LeftHand  -0.437801 -2.80879 6.4237
RightShoulder  3.8862 6.60705 32.5511
RightArm  14.9018 -19.79 28.4644
RightForeArm  129.629 79.2577 117.452
RightHand  -0.519482 8.5352 -4.70258
LeftUpLeg  -23.1679 -8.31577 7.80767
LeftLeg  34.1389 6.51622 5.10937
LeftFoot  -15.8289 -0.304689 -10.3523
LeftToes  1.24767e-006 1.47042e-008 1.32732e-009
534
root  15.5901 37.4327 24.8171 7.43494 -34.3267 -2.03278
RightUpLeg  -3.93454 5.45056 -8.43405
RightLeg  27.2185 -5.8908 -3.50611
RightFoot  -24.7775 0.94801 9.46027
RightToes  -2.08645e-008 3.77894e-005 6.81332e-007
Spine  0.652445 2.32173 0.13251
Spine1  10.4478 3.62146 -4.9539
HEad  -38.0447 11.6653 -13.7653
LeftShoulder1  7.40493 -13.1307 -38.3933
LeftArm  6.99914 8.78002 -18.2781
LeftForeArm  152.562 -76.4204 -137.039
LeftHand  -0.570056 -2.49929 8.60245
RightShoulder  3.98308 6.62121 33.4539
RightArm  10.7609 -20.5134 29.5207
RightForeArm  116.467 80.1509 104.541
RightHand  -0.508697 8.71549 -4.56068
LeftUpLeg  -24.236 -11.902 6.36975
LeftLeg  37.5761 7.83429 6.79707
LeftFoot  -17.3026 -0.35586 -8.80801
LeftToes  1.24767e-006 1.47042e-008 1.32732e-009
535
root  15.7075 37.9484 25.3891 7.15979 -34.5978 -2.19458
RightUpLeg  -5.39804 4.26061 -8.98038
RightLeg  30.8007 -4.93982 -3.41502
RightFoot  -19.4035 0.628761 10.6891
RightToes  -2.08645e-008 3.77894e-005 6.81332e-007
Spine  -0.228465 2.41465 0.711371
Spine1  10.8845 3.69548 -4.82094
HEad  -37.0196 12.37 -13.8946
LeftShoulder1  7.42445 -13.1301 -38.5054
LeftArm  4.06877 14.3763 -22.446
LeftForeArm  153.614 -75.1171 -140.868
LeftHand  -0.561434 -1.84621 9.19423
RightShoulder  3.99582 6.62718 33.5559
RightArm  9.77519 -24.6152 30.8969
RightForeArm  132.088 78.9019 120.647
RightHand  -0.618743 9.28457 -5.2819
LeftUpLeg  -21.2404 -11.8586 5.54151
LeftLeg  33.8408 8.06446 6.14904
LeftFoot  -15.7911 -0.285276 -9.79897
LeftToes  1.24767e-006 1.47042e-008 1.32732e-009
